<svg width="34" height="34" viewBox="0 0 34 34" fill="none" xmlns="http://www.w3.org/2000/svg">
<path d="M12.3301 18.6646C12.139 18.1304 12.0415 17.5673 12.0418 17C12.0418 14.2658 14.266 12.0417 17.0002 12.0417C17.584 12.0417 18.1441 12.1438 18.6647 12.33L17.4974 13.4975C17.3345 13.4743 17.1694 13.4583 17.0002 13.4583C15.0473 13.4583 13.4585 15.0471 13.4585 17C13.4585 17.1693 13.4744 17.3343 13.4974 17.4972L12.3301 18.6646ZM20.5027 16.5027C20.5257 16.6657 20.5418 16.8307 20.5418 17C20.5418 18.9529 18.953 20.5417 17.0002 20.5417C16.8309 20.5417 16.6658 20.5257 16.5029 20.5027L15.3354 21.67C15.8696 21.8611 16.4328 21.9586 17.0002 21.9583C19.7343 21.9583 21.9585 19.7342 21.9585 17C21.9585 16.4161 21.8563 15.856 21.6702 15.3354L20.5027 16.5027ZM28.1261 6.87596L27.1242 5.87402L5.87418 27.124L6.87612 28.126L28.1261 6.87596ZM30.3721 16.6607C30.3041 16.5364 28.7358 13.7045 25.6053 11.4001L24.5898 12.4157C26.9551 14.1072 28.4144 16.1943 28.9237 17C28.0038 18.4547 23.9903 24.0833 17.0002 24.0833C15.793 24.0842 14.5919 23.9118 13.4337 23.5716L12.3613 24.6441L12.3386 24.7083C13.8309 25.2337 15.3993 25.5 17.0002 25.5C25.8193 25.5 30.1902 17.6724 30.3721 17.3393L30.5569 17L30.3721 16.6607ZM8.39496 22.6001L9.40912 21.5857C7.04346 19.8946 5.58589 17.8061 5.07642 17C5.99655 15.5453 10.01 9.91666 17.0002 9.91666C18.2185 9.91666 19.4147 10.0898 20.5664 10.4284L21.6403 9.3546L21.6624 9.29191C20.1696 8.76633 18.601 8.49999 17.0002 8.49999C8.18105 8.49999 3.8101 16.3276 3.62823 16.6607L3.44336 17L3.62823 17.3393C3.69499 17.4615 5.26324 20.2943 8.39496 22.5999V22.6001Z" fill="#A4ABB3"/>
</svg>
